<svg viewBox="0 0 54 43" fill="none" xmlns="http://www.w3.org/2000/svg">
<path d="M53.2353 32.4896C53.2353 35.2849 52.1482 37.7179 49.9741 39.7884C47.8 41.7555 45.1082 42.739 41.8988 42.739C38.2753 42.739 35.2729 41.4449 32.8918 38.8567C30.6141 36.2684 29.4753 32.852 29.4753 28.6073C29.4753 19.8073 31.8047 13.0778 36.4635 8.41902C41.1223 3.7602 46.2471 1.1202 51.8376 0.499023V9.0402C48.7318 9.55785 45.9365 11.1626 43.4518 13.8543C41.0706 16.5461 39.8282 19.5484 39.7247 22.8614C40.76 22.3437 41.7953 22.0849 42.8306 22.0849C45.9365 22.0849 48.4212 23.0684 50.2847 25.0355C52.2518 26.899 53.2353 29.3837 53.2353 32.4896ZM24.5059 32.4896C24.5059 35.2849 23.4188 37.7179 21.2447 39.7884C19.0706 41.7555 16.3788 42.739 13.1694 42.739C9.54588 42.739 6.54353 41.4449 4.16235 38.8567C1.8847 36.2684 0.74588 32.852 0.74588 28.6073C0.74588 19.8073 3.02353 13.0778 7.57882 8.41902C12.2376 3.65667 17.4141 1.01667 23.1082 0.499023V9.0402C19.8988 9.55785 17.0518 11.1626 14.5671 13.8543C12.1859 16.5461 10.9435 19.5484 10.84 22.8614C11.8753 22.3437 12.9624 22.0849 14.1012 22.0849C17.1035 22.0849 19.5882 23.0684 21.5553 25.0355C23.5224 26.899 24.5059 29.3837 24.5059 32.4896Z" fill="currentColor"/>
</svg>
