<svg viewBox="0 0 32 32" fill="none" xmlns="http://www.w3.org/2000/svg">
<path d="M16 0C24.8368 0 32 7.1632 32 16C32 24.8368 24.8368 32 16 32C7.1632 32 0 24.8368 0 16C1.28844e-07 7.1632 7.1632 1.28852e-07 16 0ZM6.66699 5.91699C6.38542 5.91699 6.12728 6.07455 5.99902 6.3252C5.87089 6.57593 5.89373 6.87817 6.05859 7.10645L13.5137 17.4277L6.13672 24.8037C5.84406 25.0966 5.84395 25.5714 6.13672 25.8643C6.42957 26.1566 6.9045 26.1568 7.19727 25.8643L14.4023 18.6592L19.54 25.7725C19.6811 25.9675 19.9077 26.084 20.1484 26.084H25.334C25.6154 26.0838 25.8728 25.9253 26.001 25.6748C26.1291 25.4242 26.1061 25.1228 25.9414 24.8945L18.4883 14.5742L25.8643 7.19727C26.1568 6.9045 26.1566 6.42958 25.8643 6.13672C25.5714 5.84394 25.0966 5.84402 24.8037 6.13672L17.5986 13.3428L12.459 6.22754C12.318 6.03243 12.0913 5.91707 11.8506 5.91699H6.66699ZM11.4678 7.41699L16.8916 14.9258C16.8931 14.928 16.8949 14.9305 16.8965 14.9326L23.8672 24.584H20.5312L15.1035 17.0674L8.13477 7.41699H11.4678Z" fill="currentColor"/>
</svg>
